<?xml version="1.0" encoding="UTF-8"?>
<svg width="180px" height="36px" viewBox="0 0 180 36" version="1.1" xmlns="http://www.w3.org/2000/svg" xmlns:xlink="http://www.w3.org/1999/xlink">
    <g id="Moneyflow-Logo/Blue-Copy" stroke="none" stroke-width="1" fill="none" fill-rule="evenodd">
        <path d="M166.31442,17.98344 L166.3146,17.98344 L166.31442,18.016488 C166.31442,18.763974 166.43286,19.456488 166.66956,20.094048 C166.90626,20.731608 167.23314,21.281238 167.65038,21.74292 C168.06744,22.204602 168.55776,22.561848 169.12152,22.814676 C169.6851,23.067504 170.29386,23.193918 170.9478,23.193918 C171.60156,23.193918 172.21032,23.062014 172.77408,22.798188 C173.33766,22.53438 173.82798,22.171626 174.24522,21.709944 C174.66228,21.248262 174.98916,20.698632 175.22586,20.061072 C175.46274,19.423548 175.581,18.73107 175.581,17.98344 L175.581,9.37638 L180,9.37638 L180,18 C179.99802,19.203084 179.78922,20.340792 179.37342,21.413142 C178.95564,22.490406 178.3566,23.441256 177.57612,24.265674 C176.79564,25.09011 175.84488,25.744158 174.72366,26.227818 C173.60244,26.711496 172.3383,26.953326 170.93124,26.953326 C169.52418,26.953326 168.26562,26.711496 167.15538,26.227818 C166.04514,25.744158 165.09978,25.09011 164.3193,24.265674 C164.24622,24.188508 164.17476,24.110244 164.10492,24.0309 C164.03508,24.110244 163.96362,24.188508 163.89054,24.265674 C163.11006,25.09011 162.1593,25.744158 161.03808,26.227818 C159.91686,26.711496 158.65272,26.953326 157.24566,26.953326 C155.8386,26.953326 154.58004,26.711496 153.4698,26.227818 C152.35956,25.744158 151.4142,25.09011 150.63372,24.265674 C149.85324,23.441256 149.2542,22.490406 148.83642,21.413142 C148.42062,20.34081 148.21182,19.20312 148.21002,18 L148.20984,18 L148.20984,9.37638 L152.62884,9.37638 L152.62884,17.98344 L152.62902,17.98344 L152.62884,18.016488 C152.62884,18.763974 152.74728,19.456488 152.98398,20.094048 C153.22068,20.731608 153.54756,21.281238 153.9648,21.74292 C154.38186,22.204602 154.87218,22.561848 155.43594,22.814676 C155.99952,23.067504 156.60828,23.193918 157.26222,23.193918 C157.91598,23.193918 158.52474,23.062014 159.0885,22.798188 C159.65208,22.53438 160.14258,22.171626 160.55964,21.709944 C160.9767,21.248262 161.30358,20.698632 161.54046,20.061072 C161.77716,19.423584 161.89542,18.731142 161.89542,17.98344 L161.89542,9.37638 L166.31442,9.37638 L166.31442,17.98344 Z M137.52522,26.953326 C136.11834,26.953326 134.8542,26.711496 133.73298,26.227818 C132.61176,25.744158 131.66082,25.09011 130.88034,24.265674 C130.09986,23.441256 129.50082,22.490406 129.08304,21.413142 C128.66544,20.335896 128.45646,19.203678 128.45646,18.016488 C128.45646,16.80732 128.66544,15.66414 129.08304,14.58684 C129.50082,13.50954 130.09986,12.55878 130.88034,11.73438 C131.66082,10.9098 132.61176,10.25586 133.73298,9.7722 C134.8542,9.28854 136.11834,9.04662 137.52522,9.04662 C138.93228,9.04662 140.19102,9.28854 141.30126,9.7722 C142.4115,10.25586 143.35686,10.9098 144.13716,11.73438 C144.91764,12.55878 145.51686,13.50954 145.93446,14.58684 C146.35224,15.66414 146.56104,16.80732 146.56104,18.016488 C146.56104,19.203678 146.35224,20.335896 145.93446,21.413142 C145.51686,22.490406 144.92322,23.441256 144.15372,24.265674 C143.38422,25.09011 142.43886,25.744158 141.31764,26.227818 C140.19642,26.711496 138.93228,26.953326 137.52522,26.953326 Z M133.0074,18.016488 C133.0074,18.785952 133.12278,19.483974 133.35372,20.110536 C133.58448,20.737116 133.90326,21.281238 134.31006,21.74292 C134.71668,22.204602 135.19494,22.561848 135.74448,22.814676 C136.2942,23.067504 136.88766,23.193918 137.52522,23.193918 C138.16278,23.193918 138.75642,23.067504 139.30614,22.814676 C139.85568,22.561848 140.33394,22.204602 140.74056,21.74292 C141.14736,21.281238 141.46614,20.731608 141.6969,20.094048 C141.92784,19.456488 142.04322,18.752976 142.04322,17.98344 C142.04322,17.23608 141.92784,16.54344 141.6969,15.90588 C141.46614,15.26832 141.14736,14.71878 140.74056,14.25708 C140.33394,13.79538 139.85568,13.43808 139.30614,13.18536 C138.75642,12.93246 138.16278,12.8061 137.52522,12.8061 C136.88766,12.8061 136.2942,12.93804 135.74448,13.20174 C135.19494,13.46562 134.71668,13.82832 134.31006,14.29002 C133.90326,14.75172 133.58448,15.30144 133.35372,15.939 C133.12278,16.57656 133.0074,17.26902 133.0074,18.016488 Z M114.36516,26.623548 L109.94616,26.623548 L109.94616,8.81586 C109.94616,6.68322 110.58372,5.05098 111.85884,3.91878 C113.13396,2.78658 114.90372,2.2203 117.16812,2.2203 C119.67444,2.2203 121.52124,2.81394 122.70834,4.00122 C123.89562,5.18832 124.48908,6.74928 124.48908,8.68392 L124.48908,20.984436 C124.48908,21.204288 124.51662,21.42963 124.57152,21.66048 C124.6266,21.891312 124.72002,22.100166 124.85196,22.287042 C124.98372,22.473918 125.14878,22.6278 125.3466,22.748724 C125.54442,22.869648 125.78634,22.930092 126.072,22.930092 C126.27,22.930092 126.4788,22.908114 126.69858,22.86414 C126.91854,22.820184 127.12176,22.770702 127.30878,22.715748 C127.49562,22.660794 127.65492,22.611312 127.78686,22.567356 L127.8279,22.553658 C128.2905,23.62635 128.92806,24.614568 129.73806,25.456752 C128.75796,26.073504 127.40778,26.524872 125.92368,26.771958 C125.42976,26.854164 124.9398,26.887374 124.45614,26.887374 C123.7527,26.887374 123.13152,26.788446 122.59296,26.590572 C122.0544,26.392716 121.5981,26.1234 121.22442,25.782624 C120.85074,25.441866 120.5649,25.051644 120.36708,24.61194 C120.16908,24.172236 120.07026,23.699574 120.07026,23.193918 L120.07026,9.57438 C120.07026,9.09072 120.03174,8.62902 119.9547,8.18928 C119.87784,7.74954 119.73492,7.36488 119.52612,7.03512 C119.31714,6.70536 119.03148,6.44688 118.6686,6.26004 C118.3059,6.0732 117.84978,5.97978 117.30006,5.97978 C116.22276,5.97978 115.46982,6.32052 115.04124,7.002 C114.61248,7.68366 114.38712,8.57394 114.36516,9.6732 L114.36516,10.26684 L117.23418,10.26684 L117.23418,13.6305 L114.36516,13.6305 L114.36516,26.623548 Z M93.25962,29.987226 C93.63348,30.097152 93.99618,30.179592 94.3479,30.234564 C94.69962,30.289518 94.99644,30.317004 95.23836,30.317004 C95.5242,30.317004 95.7879,30.26205 96.02982,30.152124 C96.27156,30.042198 96.49152,29.849832 96.68934,29.575026 C96.88716,29.300202 97.08498,28.92096 97.28298,28.4373 C97.4808,27.95364 97.6896,27.349056 97.90956,26.623548 L91.08324,9.34344 L95.634,9.34344 L100.31688,22.798188 L104.472,9.34344 L108.62712,9.34344 L101.37204,30.053196 C100.95444,31.262346 100.23984,32.25168 99.2286,33.021144 C98.21718,33.790608 96.9642,34.17534 95.46912,34.17534 C95.1174,34.17534 94.7601,34.147872 94.3974,34.0929 C94.0347,34.037946 93.65544,33.944508 93.25962,33.812604 L93.25962,29.987226 Z M82.04742,26.953326 C80.66232,26.953326 79.40916,26.716986 78.28794,26.244306 C77.16672,25.771644 76.21038,25.128576 75.41892,24.315138 C74.62746,23.5017 74.01744,22.556358 73.58868,21.479094 C73.1601,20.401848 72.94572,19.26963 72.94572,18.08244 C72.94572,16.85124 73.15452,15.69168 73.5723,14.6034 C73.9899,13.51512 74.59452,12.55878 75.38598,11.73438 C76.17744,10.9098 77.13936,10.25586 78.27156,9.7722 C79.40376,9.28854 80.6733,9.04662 82.08036,9.04662 C83.48742,9.04662 84.74598,9.28854 85.85622,9.7722 C86.96646,10.25586 87.91182,10.9044 88.6923,11.71782 C89.47278,12.53124 90.06642,13.4766 90.47304,14.5539 C90.87984,15.6312 91.08324,16.75242 91.08324,17.91756 C91.08324,18.203364 91.07766,18.47817 91.06668,18.741996 C91.0557,19.005804 91.02816,19.225656 90.98424,19.401534 L77.62842,19.401534 C77.69448,20.083068 77.85936,20.687652 78.12306,21.215286 C78.38694,21.74292 78.72768,22.193604 79.14546,22.567356 C79.56306,22.94109 80.03574,23.226894 80.5635,23.42475 C81.09108,23.622624 81.64062,23.721552 82.2123,23.721552 C83.09178,23.721552 83.92158,23.507208 84.70206,23.078502 C85.48254,22.649796 86.0157,22.083678 86.30154,21.380166 L90.09378,22.435434 C89.45622,23.754528 88.43958,24.837282 87.0435,25.683696 C85.64742,26.53011 83.98206,26.953326 82.04742,26.953326 Z M86.5323,16.53246 C86.42232,15.23538 85.94424,14.1966 85.09788,13.41612 C84.25134,12.63564 83.22354,12.2454 82.01448,12.2454 C81.42084,12.2454 80.86572,12.34998 80.34912,12.55878 C79.83252,12.76758 79.37622,13.05882 78.98058,13.43268 C78.58476,13.80636 78.26058,14.25708 78.00768,14.78466 C77.75496,15.31242 77.60646,15.8949 77.56254,16.53246 L86.5323,16.53246 Z M53.19234,18 C53.19414,16.79688 53.40312,15.65928 53.81892,14.58684 C54.23652,13.50954 54.83574,12.55878 55.61622,11.73438 C56.39652,10.9098 57.34746,10.25586 58.46868,9.7722 C59.5899,9.28854 60.85404,9.04662 62.2611,9.04662 C63.66816,9.04662 64.92672,9.28854 66.03696,9.7722 C67.1472,10.25586 68.09256,10.9098 68.87304,11.73438 C69.65352,12.55878 70.25256,13.50954 70.67034,14.58684 C71.08614,15.6591 71.29494,16.79688 71.29674,18 L71.29692,26.623548 L66.87792,26.623548 L66.87792,17.98344 C66.87792,17.23608 66.75948,16.54344 66.52278,15.90588 C66.28608,15.26832 65.95902,14.71878 65.54196,14.25708 C65.1249,13.79538 64.63458,13.43808 64.07082,13.18536 C63.50724,12.93246 62.89848,12.8061 62.24454,12.8061 C61.59078,12.8061 60.98202,12.93804 60.41826,13.20174 C59.85468,13.46562 59.36418,13.82832 58.94712,14.29002 C58.53006,14.75172 58.20318,15.30144 57.9663,15.939 C57.7296,16.57638 57.61134,17.26902 57.61134,18.016488 L57.61134,26.623548 L53.19234,26.623548 L53.19234,18 Z M42.50772,26.953326 C41.10066,26.953326 39.83652,26.711496 38.7153,26.227818 C37.59408,25.744158 36.64314,25.09011 35.86284,24.265674 C35.08236,23.441256 34.48314,22.490406 34.06554,21.413142 C33.64776,20.335896 33.43896,19.203678 33.43896,18.016488 C33.43896,16.80732 33.64776,15.66414 34.06554,14.58684 C34.48314,13.50954 35.08236,12.55878 35.86284,11.73438 C36.64314,10.9098 37.59408,10.25586 38.7153,9.7722 C39.83652,9.28854 41.10066,9.04662 42.50772,9.04662 C43.91478,9.04662 45.17334,9.28854 46.28358,9.7722 C47.39382,10.25586 48.33918,10.9098 49.11966,11.73438 C49.90014,12.55878 50.49918,13.50954 50.91696,14.58684 C51.33456,15.66414 51.54354,16.80732 51.54354,18.016488 C51.54354,19.203678 51.33456,20.335896 50.91696,21.413142 C50.49918,22.490406 49.90554,23.441256 49.13604,24.265674 C48.36672,25.09011 47.42136,25.744158 46.30014,26.227818 C45.17892,26.711496 43.91478,26.953326 42.50772,26.953326 Z M37.98972,18.016488 C37.98972,18.785952 38.10528,19.483974 38.33604,20.110536 C38.56698,20.737116 38.88576,21.281238 39.29238,21.74292 C39.69918,22.204602 40.17726,22.561848 40.72698,22.814676 C41.27652,23.067504 41.87016,23.193918 42.50772,23.193918 C43.14528,23.193918 43.73892,23.067504 44.28846,22.814676 C44.838,22.561848 45.31626,22.204602 45.72288,21.74292 C46.12968,21.281238 46.44846,20.731608 46.67922,20.094048 C46.91016,19.456488 47.02554,18.752976 47.02554,17.98344 C47.02554,17.23608 46.91016,16.54344 46.67922,15.90588 C46.44846,15.26832 46.12968,14.71878 45.72288,14.25708 C45.31626,13.79538 44.838,13.43808 44.28846,13.18536 C43.73892,12.93246 43.14528,12.8061 42.50772,12.8061 C41.87016,12.8061 41.27652,12.93804 40.72698,13.20174 C40.17726,13.46562 39.69918,13.82832 39.29238,14.29002 C38.88576,14.75172 38.56698,15.30144 38.33604,15.939 C38.10528,16.57656 37.98972,17.26902 37.98972,18.016488 Z M13.685562,26.623512 L13.685562,17.98344 C13.685562,17.23608 13.567194,16.54344 13.330458,15.90588 C13.093722,15.26832 12.766788,14.71878 12.349674,14.25708 C11.932578,13.79538 11.442186,13.43808 10.878516,13.18536 C10.314864,12.93246 9.706104,12.8061 9.052254,12.8061 C8.398404,12.8061 7.789662,12.93804 7.225992,13.20174 C6.662322,13.46562 6.171948,13.82832 5.754834,14.29002 C5.33772,14.75172 5.010804,15.30144 4.774068,15.939 C4.537332,16.57638 4.418964,17.26902 4.418946,18.016488 L4.418946,26.623548 L0,26.623548 L1.8e-05,18 C0.001908,16.79688 0.210762,15.65928 0.626562,14.58684 C1.044288,13.50954 1.643364,12.55878 2.423826,11.73438 C3.204288,10.9098 4.155138,10.25586 5.276358,9.7722 C6.397596,9.28854 7.661718,9.04662 9.068742,9.04662 C10.475784,9.04662 11.734416,9.28854 12.844638,9.7722 C13.954878,10.25586 14.90022,10.9098 15.680682,11.73438 C15.753726,11.81142 15.825186,11.88972 15.895044,11.9691 C15.964884,11.88972 16.036344,11.81142 16.109388,11.73438 C16.88985,10.9098 17.8407,10.25586 18.96192,9.7722 C20.08314,9.28854 21.34728,9.04662 22.75434,9.04662 C24.1614,9.04662 25.41996,9.28854 26.5302,9.7722 C27.64044,10.25586 28.5858,10.9098 29.36628,11.73438 C30.14676,12.55878 30.7458,13.50954 31.16358,14.58684 C31.57938,15.6591 31.78818,16.79688 31.78998,18 L31.79016,26.623548 L27.37116,26.623548 L27.37116,17.98344 C27.37116,17.23608 27.25272,16.54344 27.01602,15.90588 C26.77932,15.26832 26.45244,14.71878 26.0352,14.25708 C25.61814,13.79538 25.12782,13.43808 24.56406,13.18536 C24.00048,12.93246 23.39172,12.8061 22.73778,12.8061 C22.08402,12.8061 21.47526,12.93804 20.9115,13.20174 C20.34792,13.46562 19.85742,13.82832 19.44036,14.29002 C19.0233,14.75172 18.69642,15.30144 18.45954,15.939 C18.22284,16.57638 18.10458,17.26902 18.10458,18.016488 L18.10458,26.623512 L18.10458,26.623548 L13.685562,26.623548 L13.685562,26.623512 Z" fill="#0053D9"></path>
    </g>
</svg>
